<?xml version="1.0" standalone="no"?>
<!DOCTYPE svg PUBLIC "-//W3C//DTD SVG 20010904//EN"
 "http://www.w3.org/TR/2001/REC-SVG-20010904/DTD/svg10.dtd">
<svg version="1.0" xmlns="http://www.w3.org/2000/svg"
 width="16.000000pt" height="16.000000pt" viewBox="0 0 16.000000 16.000000"
 preserveAspectRatio="xMidYMid meet">
<metadata>
Created by potrace 1.11, written by Peter Selinger 2001-2013
</metadata>
<g transform="translate(0.000000,16.000000) scale(0.002286,-0.002286)"
fill="#000000" stroke="none">
<path d="M2729 6316 c-11 -39 -43 -145 -71 -236 -90 -298 -301 -1008 -324
-1090 -9 -30 -20 -66 -25 -80 -4 -14 -29 -95 -54 -180 -54 -182 -65 -218 -186
-620 -50 -168 -95 -318 -99 -335 -7 -27 -275 -926 -319 -1070 -23 -72 -15 -46
-251 -840 -105 -352 -227 -761 -272 -910 -44 -148 -83 -278 -85 -288 -5 -16
25 -17 539 -17 l544 0 148 522 c82 288 155 544 163 569 l13 47 1000 0 1000 0
14 -51 c8 -29 26 -92 39 -142 41 -149 72 -264 167 -608 49 -180 90 -330 90
-332 0 -3 268 -5 596 -5 l595 0 -6 21 c-4 12 -16 51 -27 88 -11 36 -33 111
-50 166 -16 55 -35 120 -43 145 -7 25 -48 162 -90 305 -43 143 -81 274 -85
290 -9 32 -47 159 -100 335 -18 58 -33 112 -35 120 -2 8 -29 98 -60 200 -31
102 -64 214 -74 250 -19 64 -59 201 -141 475 -23 77 -52 176 -65 220 -42 142
-234 793 -301 1020 -36 121 -78 263 -94 315 -16 52 -54 181 -85 285 -31 105
-67 227 -80 273 -61 202 -94 313 -250 842 -36 124 -77 261 -91 306 l-24 81
-750 0 -750 1 -21 -72z m822 -1338 c49 -178 108 -386 130 -463 22 -77 42 -147
44 -155 5 -23 97 -351 160 -575 31 -110 60 -213 65 -230 4 -16 36 -129 70
-250 34 -121 73 -260 87 -310 13 -49 37 -135 52 -190 16 -55 31 -110 34 -121
l4 -22 -744 1 c-409 0 -745 3 -747 6 -2 3 23 98 55 211 32 113 61 214 63 225
3 11 44 157 91 325 48 168 88 312 90 320 2 8 38 137 80 285 42 149 94 335 116
415 22 80 70 249 106 375 35 127 66 237 68 245 2 8 17 63 34 121 17 59 31 115
31 125 1 43 24 -27 111 -338z"/>
</g>
</svg>
