<?xml version="1.0" standalone="no"?>
<!DOCTYPE svg PUBLIC "-//W3C//DTD SVG 20010904//EN"
 "http://www.w3.org/TR/2001/REC-SVG-20010904/DTD/svg10.dtd">
<svg version="1.0" xmlns="http://www.w3.org/2000/svg"
 width="700.000000pt" height="700.000000pt" viewBox="0 0 700.000000 700.000000"
 preserveAspectRatio="xMidYMid meet">
<metadata>
Created by potrace 1.11, written by Peter Selinger 2001-2013
</metadata>
<g transform="translate(0.000000,700.000000) scale(0.100000,-0.100000)"
fill="#000000" stroke="none">
<path d="M2752 6123 c-5 -21 -22 -76 -37 -123 -15 -47 -35 -112 -45 -145 -10
-33 -35 -112 -55 -175 -20 -63 -45 -142 -55 -175 -33 -108 -98 -317 -145 -465
-26 -80 -86 -273 -135 -430 -49 -157 -107 -343 -130 -415 -23 -71 -48 -152
-57 -180 -8 -27 -39 -129 -70 -225 -30 -96 -75 -240 -100 -320 -24 -80 -65
-210 -90 -290 -25 -80 -69 -221 -98 -315 -30 -93 -81 -258 -115 -365 -34 -107
-70 -222 -80 -255 -10 -33 -53 -170 -95 -305 -42 -135 -81 -258 -85 -275 -5
-16 -15 -50 -23 -75 -14 -40 -131 -414 -193 -613 -13 -42 -36 -114 -50 -160
-41 -130 -43 -137 -41 -138 7 -4 1250 -3 1255 1 4 3 8 12 9 20 2 8 53 206 113
440 61 234 113 435 116 447 12 60 95 370 102 382 7 13 124 15 826 15 450 1
821 -1 825 -4 6 -4 119 -431 146 -550 4 -18 163 -651 176 -702 l10 -38 660 0
c626 0 661 1 654 18 -4 9 -28 87 -55 172 -47 152 -397 1277 -428 1375 -8 28
-17 55 -18 60 -3 11 -132 423 -220 705 -30 96 -57 182 -59 190 -2 8 -4 15 -5
15 -1 0 -3 7 -5 15 -5 20 -42 138 -104 338 -28 89 -74 235 -102 325 -28 89
-61 196 -74 237 -12 41 -61 199 -108 350 -47 151 -102 329 -122 395 -20 66
-41 129 -45 140 -5 11 -31 94 -59 185 -27 91 -96 311 -151 490 -56 179 -111
355 -122 393 l-21 67 -742 0 -743 0 -10 -37z m738 -912 c0 -3 10 -40 21 -81
45 -162 98 -372 134 -525 20 -88 98 -401 172 -695 74 -294 136 -542 138 -550
2 -8 27 -104 54 -212 28 -108 51 -199 51 -202 0 -3 -263 -6 -584 -6 l-583 0
49 188 c27 103 51 198 54 212 3 14 14 59 25 100 96 354 139 520 164 630 2 8
24 103 50 210 25 107 48 206 51 220 5 24 27 119 124 532 23 94 43 174 45 178
5 8 35 9 35 1z"/>
</g>
</svg>
