<?xml version="1.0" encoding="utf-8"?>
<!-- Generator: Adobe Illustrator 20.1.0, SVG Export Plug-In . SVG Version: 6.00 Build 0)  -->
<svg version="1.1" id="Layer_1" xmlns="http://www.w3.org/2000/svg" xmlns:xlink="http://www.w3.org/1999/xlink" x="0px" y="0px"
	 viewBox="0 0 125 86.3" enable-background="new 0 0 125 86.3" xml:space="preserve">
<g>
	<g>
		<path fill="#90CAF9" d="M123.5,74.8c0,5.5-4.5,10-10,10l-102,0c-5.5,0-10-4.5-10-10l0-63.3c0-5.5,4.5-10,10-10l102,0
			c5.5,0,10,4.5,10,10L123.5,74.8z"/>
		<path fill="none" stroke="#90CAF9" stroke-width="3" stroke-miterlimit="10" d="M123.5,74.8c0,5.5-4.5,10-10,10l-102,0
			c-5.5,0-10-4.5-10-10l0-63.3c0-5.5,4.5-10,10-10l102,0c5.5,0,10,4.5,10,10L123.5,74.8z"/>
	</g>
	<g>
		<path fill="#FFFFFF" d="M72.6,64.8l-2.5-9.1H54l-2.6,9.1h-8.6l13.6-45.9h12.1l13.6,45.9H72.6z M62.1,27.3l-6,21.4h12L62.1,27.3z"
			/>
	</g>
</g>
</svg>
