<?xml version="1.0" encoding="utf-8"?>
<!-- Generator: Adobe Illustrator 20.1.0, SVG Export Plug-In . SVG Version: 6.00 Build 0)  -->
<svg version="1.1" id="Layer_1" xmlns="http://www.w3.org/2000/svg" xmlns:xlink="http://www.w3.org/1999/xlink" x="0px" y="0px"
	 viewBox="0 0 63 63" enable-background="new 0 0 63 63" xml:space="preserve">
<g>
	<g>
		<path fill="#90CAF9" d="M61.5,53.5c0,4.4-3.6,8-8,8l-44,0c-4.4,0-8-3.6-8-8l0-44c0-4.4,3.6-8,8-8l44,0c4.4,0,8,3.6,8,8L61.5,53.5z
			"/>
		<path fill="none" stroke="#90CAF9" stroke-width="3" stroke-miterlimit="10" d="M61.5,53.5c0,4.4-3.6,8-8,8l-44,0
			c-4.4,0-8-3.6-8-8l0-44c0-4.4,3.6-8,8-8l44,0c4.4,0,8,3.6,8,8L61.5,53.5z"/>
	</g>
	<g id="A">
		<path fill="#FFFFFF" d="M50.9,53.6h-6.8l-3.2-10H21.8l-3.2,10h-6.5L27.3,7.7h8.6L50.9,53.6z M39.1,38l-7.8-24.6L23.6,38H39.1z"/>
	</g>
</g>
<g>
</g>
<g>
</g>
<g>
</g>
<g>
</g>
<g>
</g>
<g>
</g>
<g>
</g>
<g>
</g>
<g>
</g>
<g>
</g>
<g>
</g>
<g>
</g>
<g>
</g>
<g>
</g>
<g>
</g>
</svg>
