<?xml version="1.0" encoding="utf-8"?>
<!-- Generator: Adobe Illustrator 20.1.0, SVG Export Plug-In . SVG Version: 6.00 Build 0)  -->
<svg version="1.1" id="Layer_1" xmlns="http://www.w3.org/2000/svg" xmlns:xlink="http://www.w3.org/1999/xlink" x="0px" y="0px"
	 viewBox="0 0 117 78" enable-background="new 0 0 117 78" xml:space="preserve">
<g>
	<g>
		<path fill="#90CAF9" d="M115.5,66.5c0,5.5-4.5,10-10,10l-94,0c-5.5,0-10-4.5-10-10l0-55c0-5.5,4.5-10,10-10l94,0
			c5.5,0,10,4.5,10,10L115.5,66.5z"/>
		<path fill="none" stroke="#90CAF9" stroke-width="3" stroke-miterlimit="10" d="M115.5,66.5c0,5.5-4.5,10-10,10l-94,0
			c-5.5,0-10-4.5-10-10l0-55c0-5.5,4.5-10,10-10l94,0c5.5,0,10,4.5,10,10L115.5,66.5z"/>
	</g>
	<g>
		<path fill="#FFFFFF" d="M68.6,61l-2.5-9.1H50L47.4,61h-8.6L52.5,15h12.1L78.2,61H68.6z M58.1,23.5l-6,21.4h12L58.1,23.5z"/>
	</g>
</g>
</svg>
